<svg width="283" height="365" viewBox="0 0 283 365" fill="none" xmlns="http://www.w3.org/2000/svg">
<circle cx="141.5" cy="141.5" r="141.5" fill="#EFF2FE"/>
<rect x="85.0542" y="137.595" width="140.49" height="195.902" rx="7" transform="rotate(2.5 85.0542 137.595)" fill="#443DF6" stroke="#5E81F4" stroke-width="2"/>
<rect x="4.73178" y="127.859" width="144.49" height="199.902" rx="9" transform="rotate(-7.5 4.73178 127.859)" fill="white" stroke="#5E81F4" stroke-width="2"/>
<path d="M6.89796 136.651C6.32126 132.271 9.40483 128.252 13.7853 127.676L139.193 111.165C143.573 110.589 147.592 113.672 148.168 118.053L153.065 155.249L11.795 173.848L6.89796 136.651Z" fill="#443DF6"/>
<rect x="177.847" y="116.055" width="5.93706" height="19.7902" rx="2.96853" transform="rotate(82.5 177.847 116.055)" fill="#5E81F4"/>
<rect x="123.629" y="83.2715" width="5.93706" height="19.7902" rx="2.96853" transform="rotate(-7.5 123.629 83.2715)" fill="#5E81F4"/>
<rect x="158.415" y="88.6738" width="5.93706" height="19.7902" rx="2.96853" transform="rotate(37.5 158.415 88.6738)" fill="#5E81F4"/>
<rect x="26.563" y="179.887" width="114.783" height="7.91608" rx="2" transform="rotate(-7.5 26.563 179.887)" fill="#9698D6"/>
<rect x="31.7292" y="219.129" width="114.783" height="7.91608" rx="2" transform="rotate(-7.5 31.7292 219.129)" fill="#9698D6"/>
<rect x="36.8955" y="258.371" width="114.783" height="7.91608" rx="2" transform="rotate(-7.5 36.8955 258.371)" fill="#9698D6"/>
<rect x="28.6294" y="195.583" width="41.5594" height="7.91608" rx="2" transform="rotate(-7.5 28.6294 195.583)" fill="#443DF6"/>
<rect x="33.7956" y="234.826" width="41.5594" height="7.91608" rx="2" transform="rotate(-7.5 33.7956 234.826)" fill="#443DF6"/>
<rect x="38.962" y="274.067" width="41.5594" height="7.91608" rx="2" transform="rotate(-7.5 38.962 274.067)" fill="#443DF6"/>
</svg>
